<svg width="25" height="25" viewBox="0 0 25 25" fill="none" xmlns="http://www.w3.org/2000/svg">
<path fill-rule="evenodd" clip-rule="evenodd" d="M17.9998 0.654785H7.33317C3.65128 0.654785 0.666504 3.63956 0.666504 7.32145V17.9881C0.666504 21.67 3.65128 24.6548 7.33317 24.6548H17.9998C21.6817 24.6548 24.6665 21.67 24.6665 17.9881V7.32145C24.6665 3.63956 21.6817 0.654785 17.9998 0.654785ZM22.3332 17.9881C22.3258 20.3783 20.39 22.3141 17.9998 22.3215H7.33317C4.94297 22.3141 3.00716 20.3783 2.99984 17.9881V7.32145C3.00716 4.93125 4.94297 2.99544 7.33317 2.98812H17.9998C20.39 2.99544 22.3258 4.93125 22.3332 7.32145V17.9881ZM18.9998 7.65479C19.7362 7.65479 20.3332 7.05783 20.3332 6.32145C20.3332 5.58508 19.7362 4.98812 18.9998 4.98812C18.2634 4.98812 17.6665 5.58508 17.6665 6.32145C17.6665 7.05783 18.2634 7.65479 18.9998 7.65479ZM12.6665 6.65479C9.3528 6.65479 6.6665 9.34108 6.6665 12.6548C6.6665 15.9685 9.3528 18.6548 12.6665 18.6548C15.9802 18.6548 18.6665 15.9685 18.6665 12.6548C18.6701 11.0624 18.039 9.53421 16.913 8.40822C15.787 7.28224 14.2589 6.65124 12.6665 6.65479ZM8.99984 12.6548C8.99984 14.6799 10.6414 16.3215 12.6665 16.3215C14.6916 16.3215 16.3332 14.6799 16.3332 12.6548C16.3332 10.6297 14.6916 8.98812 12.6665 8.98812C10.6414 8.98812 8.99984 10.6297 8.99984 12.6548Z" fill="black"/>
</svg>
