<svg width="187" height="40" viewBox="0 0 187 40" fill="none" xmlns="http://www.w3.org/2000/svg">
<path d="M30.2255 17.828C29.7201 18.3364 29.3332 18.95 29.0921 19.6249C28.8511 20.3 28.7619 21.0199 28.8308 21.7333L28.8068 21.7093C28.8777 22.5492 28.7644 23.3943 28.4749 24.1859C28.1855 24.9773 27.7268 25.6961 27.1309 26.2921C26.5349 26.888 25.8161 27.3468 25.0245 27.6361C24.2331 27.9256 23.3879 28.0389 22.5481 27.968L22.5721 27.992C21.5676 27.8985 20.5587 28.1171 19.6828 28.618C18.8071 29.1189 18.1071 29.8777 17.6784 30.7911C17.2497 31.7044 17.1131 32.7276 17.2872 33.7215C17.4615 34.7152 17.9379 35.6311 18.6516 36.3441C19.3653 37.0572 20.2816 37.5328 21.2755 37.706C22.2695 37.8793 23.2925 37.7417 24.2055 37.3123C25.1184 36.8827 25.8765 36.1821 26.3767 35.3059C26.8768 34.4296 27.0945 33.4205 27.0001 32.416L27.0255 32.44C26.9545 31.6003 27.0677 30.7551 27.3572 29.9635C27.6467 29.172 28.1055 28.4532 28.7013 27.8572C29.2973 27.2613 30.0161 26.8025 30.8076 26.5132C31.5992 26.2237 32.4443 26.1104 33.2841 26.1813L33.2588 26.1573C34.0793 26.2311 34.9053 26.0965 35.6601 25.7661C36.4148 25.4357 37.074 24.9201 37.5764 24.2672C38.0788 23.6143 38.4084 22.8449 38.5343 22.0308C38.6603 21.2165 38.5787 20.3837 38.2971 19.6093C38.0155 18.8351 37.5429 18.1444 36.9233 17.6013C36.3037 17.0583 35.5571 16.6804 34.7525 16.5028C33.948 16.3252 33.1116 16.3535 32.3209 16.5851C31.5303 16.8168 30.8109 17.2443 30.2295 17.828H30.2255Z" fill="#394149"/>
<path d="M20.3891 24.848L20.3638 24.824C21.0775 24.8959 21.7983 24.8083 22.4742 24.5675C23.1499 24.3267 23.7638 23.9388 24.2713 23.4317C24.7786 22.9247 25.1671 22.3111 25.4083 21.6355C25.6497 20.9599 25.7378 20.2392 25.6665 19.5253L25.6918 19.5493C25.6209 18.7095 25.7342 17.8644 26.0235 17.0728C26.313 16.2813 26.7718 15.5625 27.3677 14.9665C27.9637 14.3707 28.6825 13.9119 29.4739 13.6225C30.2655 13.333 31.1106 13.2198 31.9505 13.2907L31.9251 13.2667C32.9298 13.3611 33.939 13.1431 34.8153 12.6428C35.6917 12.1424 36.3922 11.3839 36.8215 10.4708C37.2509 9.55764 37.3881 8.53427 37.2145 7.54025C37.0409 6.54624 36.5649 5.63 35.8513 4.91648C35.1378 4.20297 34.2215 3.72692 33.2275 3.55329C32.2335 3.37965 31.2102 3.51686 30.297 3.94622C29.3838 4.37557 28.6254 5.07617 28.125 5.95245C27.6246 6.82872 27.4067 7.83801 27.5011 8.84265L27.4771 8.81732C27.5482 9.65717 27.4351 10.5024 27.1458 11.2941C26.8565 12.0857 26.3977 12.8046 25.8018 13.4007C25.2058 13.9965 24.4869 14.4553 23.6953 14.7447C22.9035 15.034 22.0583 15.1471 21.2185 15.076L21.2425 15.1013C20.5287 15.0295 19.8078 15.1171 19.1321 15.3579C18.4563 15.5985 17.8425 15.9865 17.335 16.4936C16.8275 17.0007 16.4391 17.6143 16.1978 18.2899C15.9566 18.9655 15.8685 19.6861 15.9398 20.4L15.9158 20.376C15.9865 21.2157 15.873 22.0608 15.5835 22.8523C15.2939 23.6436 14.8353 24.3624 14.2394 24.9583C13.6435 25.5541 12.9248 26.0128 12.1333 26.3024C11.3419 26.5919 10.4969 26.7053 9.65713 26.6347L9.68113 26.6587C8.67649 26.5643 7.6672 26.7821 6.79092 27.2825C5.91465 27.7829 5.21405 28.5413 4.78471 29.4545C4.35535 30.3677 4.21812 31.3911 4.39176 32.3851C4.5654 33.3791 5.04145 34.2953 5.75496 35.0088C6.46848 35.7224 7.38472 36.1984 8.37873 36.372C9.37275 36.5456 10.3961 36.4084 11.3093 35.9791C12.2224 35.5497 12.9809 34.8492 13.4813 33.9729C13.9817 33.0965 14.1995 32.0873 14.1051 31.0827L14.1305 31.1067C14.0595 30.2668 14.1729 29.4217 14.4623 28.6301C14.7517 27.8387 15.2105 27.1199 15.8063 26.5239C16.4023 25.928 17.1211 25.4692 17.9126 25.1799C18.7042 24.8904 19.5493 24.7771 20.3891 24.848Z" fill="#006B6A"/>
<path d="M11.4534 22.172C11.9587 21.6637 12.3456 21.0501 12.5865 20.3751C12.8273 19.7 12.9162 18.98 12.8467 18.2667L12.872 18.2907C12.8011 17.4507 12.9144 16.6052 13.204 15.8135C13.4936 15.0217 13.9526 14.3028 14.5488 13.7068C15.1451 13.1108 15.8642 12.6522 16.656 12.3629C17.4479 12.0736 18.2934 11.9607 19.1334 12.032L19.108 12.008C20.1123 12.1021 21.1212 11.8841 21.9971 11.3838C22.873 10.8835 23.5731 10.1252 24.0023 9.2123C24.4314 8.29942 24.5684 7.27642 24.3948 6.28278C24.2212 5.28914 23.7452 4.37324 23.032 3.65999C22.3188 2.94674 21.4028 2.47084 20.4092 2.29722C19.4156 2.12358 18.3926 2.26067 17.4798 2.68976C16.5668 3.11886 15.8086 3.81908 15.3083 4.69495C14.8079 5.57082 14.5899 6.5797 14.684 7.58399L14.66 7.55999C14.731 8.39979 14.6176 9.24495 14.3282 10.0365C14.0387 10.828 13.5801 11.5468 12.9841 12.1428C12.3882 12.7387 11.6694 13.1974 10.8778 13.4868C10.0863 13.7763 9.24117 13.8896 8.40137 13.8187L8.42537 13.8427C7.6048 13.7691 6.77892 13.9039 6.02428 14.2344C5.26964 14.5649 4.61064 15.0807 4.10836 15.7337C3.60608 16.3867 3.27677 17.156 3.15093 17.9701C3.0251 18.7844 3.10682 19.6172 3.38852 20.3913C3.67021 21.1656 4.14278 21.8561 4.76242 22.3991C5.38206 22.9421 6.12873 23.3199 6.93324 23.4975C7.73773 23.6749 8.57404 23.6465 9.36466 23.4149C10.1553 23.1832 10.8746 22.7557 11.456 22.172H11.4534Z" fill="#394149"/>
<path d="M52.7559 8.87332H56.7159V28.144H52.7559V8.87332Z" fill="#394149"/>
<path d="M58.9584 21.5453C58.953 20.1605 59.3586 18.8051 60.1239 17.6509C60.8892 16.4968 61.9799 15.5957 63.2578 15.062C64.5356 14.5281 65.9431 14.3856 67.302 14.6524C68.661 14.9192 69.9102 15.5832 70.8914 16.5605C71.8726 17.5377 72.5416 18.7843 72.8139 20.1421C73.0862 21.5 72.9492 22.9081 72.4206 24.1881C71.8919 25.468 70.9952 26.5624 69.8442 27.3323C68.693 28.1023 67.3394 28.5133 65.9544 28.5133C65.0352 28.5239 64.1231 28.3509 63.2714 28.0048C62.4196 27.6587 61.6455 27.1463 60.9942 26.4976C60.3427 25.8488 59.8272 25.0767 59.4778 24.2264C59.1282 23.3761 58.9516 22.4647 58.9584 21.5453ZM68.9904 21.5453C68.9739 20.9484 68.7818 20.3696 68.4382 19.8812C68.0944 19.3929 67.6144 19.0167 67.0582 18.7997C66.5018 18.5827 65.8939 18.5344 65.3103 18.6611C64.7267 18.7877 64.1934 19.0835 63.777 19.5116C63.3607 19.9396 63.0796 20.481 62.9694 21.0679C62.859 21.6547 62.9239 22.2611 63.1563 22.8112C63.3887 23.3613 63.778 23.8307 64.2756 24.1607C64.7734 24.4907 65.3574 24.6667 65.9544 24.6667C66.3634 24.6776 66.7702 24.6036 67.1492 24.4495C67.5282 24.2953 67.8711 24.0644 68.1563 23.7712C68.4415 23.4779 68.663 23.1287 68.8064 22.7456C68.95 22.3625 69.0127 21.9539 68.9904 21.5453Z" fill="#394149"/>
<path d="M88.7332 14.9453V27.4787C88.7332 31.9133 85.2745 33.788 81.7639 33.788C80.5279 33.8805 79.2901 33.6308 78.1865 33.0664C77.0831 32.5019 76.1563 31.6444 75.5079 30.588L78.8865 28.6347C79.1591 29.1853 79.5933 29.6396 80.1311 29.9368C80.6689 30.2339 81.2847 30.3597 81.8959 30.2973C82.2865 30.3515 82.6844 30.3171 83.06 30.1967C83.4355 30.0763 83.7792 29.8729 84.0656 29.6019C84.352 29.3307 84.5737 28.9987 84.7145 28.6301C84.8552 28.2617 84.9112 27.8664 84.8785 27.4733V26.2667C84.4148 26.834 83.8247 27.2848 83.1552 27.5828C82.4857 27.8808 81.7559 28.0177 81.0239 27.9827C79.2823 27.9277 77.6304 27.1973 76.4179 25.9459C75.2053 24.6945 74.5273 23.0204 74.5273 21.278C74.5273 19.5356 75.2053 17.8615 76.4179 16.6101C77.6304 15.3587 79.2823 14.6283 81.0239 14.5733C81.7559 14.5383 82.4857 14.6752 83.1552 14.9732C83.8247 15.2712 84.4148 15.722 84.8785 16.2893V14.9427L88.7332 14.9453ZM84.8799 21.28C84.9065 20.6419 84.7415 20.0103 84.4061 19.4667C84.0708 18.9229 83.5804 18.4921 82.9981 18.2296C82.4159 17.9669 81.7684 17.8847 81.1389 17.9932C80.5095 18.1017 79.9269 18.3961 79.4661 18.8387C79.0055 19.2811 78.6877 19.8512 78.5537 20.4757C78.4199 21.1003 78.4759 21.7507 78.7148 22.3431C78.9536 22.9355 79.3643 23.4429 79.8939 23.8C80.4235 24.1571 81.0479 24.3475 81.6865 24.3467C82.1027 24.3757 82.5201 24.3173 82.9123 24.1752C83.3044 24.0331 83.6624 23.8103 83.9632 23.5215C84.264 23.2325 84.5011 22.8839 84.6589 22.4977C84.8168 22.1117 84.8921 21.6969 84.8799 21.28Z" fill="#394149"/>
<path d="M90.976 21.5453C90.9706 20.1605 91.376 18.8051 92.1415 17.6509C92.9068 16.4968 93.9975 15.5957 95.2753 15.062C96.5532 14.5281 97.9607 14.3856 99.3196 14.6524C100.679 14.9192 101.928 15.5832 102.909 16.5605C103.89 17.5377 104.559 18.7843 104.831 20.1421C105.104 21.5 104.967 22.9081 104.438 24.1881C103.909 25.468 103.013 26.5624 101.862 27.3323C100.711 28.1023 99.3569 28.5133 97.972 28.5133C97.0528 28.5239 96.1405 28.3509 95.2889 28.0048C94.4372 27.6587 93.6631 27.1463 93.0117 26.4976C92.3603 25.8488 91.8448 25.0767 91.4953 24.2264C91.1457 23.3761 90.9692 22.4647 90.976 21.5453ZM101.008 21.5453C100.991 20.9484 100.799 20.3696 100.456 19.8812C100.112 19.3929 99.632 19.0167 99.0758 18.7997C98.5194 18.5827 97.9114 18.5344 97.3279 18.6611C96.7443 18.7877 96.211 19.0835 95.7946 19.5116C95.3783 19.9396 95.0972 20.481 94.9868 21.0679C94.8764 21.6547 94.9415 22.2611 95.1739 22.8112C95.4063 23.3613 95.7956 23.8307 96.2932 24.1607C96.791 24.4907 97.3748 24.6667 97.972 24.6667C98.3809 24.6776 98.7878 24.6036 99.1667 24.4495C99.5458 24.2953 99.8887 24.0644 100.174 23.7712C100.459 23.4779 100.681 23.1287 100.824 22.7456C100.968 22.3625 101.03 21.9539 101.008 21.5453Z" fill="#394149"/>
<path d="M106.815 11.408C106.815 10.9381 106.954 10.4787 107.215 10.088C107.476 9.69723 107.847 9.39268 108.281 9.21285C108.716 9.03301 109.193 8.98596 109.654 9.07764C110.115 9.16932 110.539 9.39561 110.871 9.72791C111.203 10.0602 111.429 10.4835 111.521 10.9445C111.613 11.4053 111.566 11.8831 111.386 12.3172C111.206 12.7514 110.902 13.1225 110.511 13.3836C110.12 13.6447 109.661 13.784 109.191 13.784C108.563 13.7777 107.962 13.5255 107.517 13.0812C107.073 12.6369 106.821 12.0362 106.815 11.408ZM107.215 14.9453H111.176V28.1453H107.209L107.215 14.9453Z" fill="#394149"/>
<path d="M128.275 21.5453C128.32 22.4177 128.193 23.2905 127.9 24.1136C127.608 24.9367 127.155 25.6937 126.569 26.3413C125.983 26.9888 125.274 27.5141 124.484 27.8869C123.694 28.2596 122.838 28.4725 121.965 28.5133C121.231 28.5533 120.498 28.4296 119.818 28.1511C119.138 27.8724 118.528 27.446 118.033 26.9027V33.424H114.073V14.9453H118.033V16.1853C118.528 15.6424 119.138 15.2163 119.818 14.938C120.498 14.6596 121.232 14.536 121.965 14.576C122.838 14.6167 123.694 14.8295 124.484 15.2023C125.275 15.5751 125.983 16.1004 126.57 16.7481C127.156 17.3959 127.609 18.1532 127.901 18.9765C128.194 19.7997 128.321 20.6728 128.275 21.5453ZM124.315 21.5453C124.299 20.9276 124.102 20.3281 123.747 19.8219C123.393 19.3157 122.897 18.9253 122.322 18.6997C121.746 18.474 121.117 18.4229 120.513 18.5531C119.909 18.6831 119.357 18.9884 118.925 19.4308C118.494 19.8733 118.202 20.4331 118.088 21.0404C117.973 21.6476 118.04 22.2751 118.28 22.8445C118.52 23.414 118.923 23.8999 119.438 24.2416C119.952 24.5832 120.557 24.7655 121.175 24.7653C121.599 24.7843 122.022 24.7132 122.417 24.5569C122.812 24.4008 123.17 24.1628 123.466 23.8588C123.762 23.5547 123.991 23.1915 124.138 22.7928C124.284 22.3941 124.344 21.9689 124.315 21.5453Z" fill="#394149"/>
<path d="M140.495 24.184C140.495 27.22 137.856 28.5133 135.005 28.5133C133.853 28.6176 132.697 28.3741 131.685 27.814C130.673 27.254 129.853 26.4033 129.329 25.372L132.76 23.4187C132.899 23.8953 133.197 24.3101 133.605 24.5935C134.012 24.8769 134.505 25.012 135 24.976C135.949 24.976 136.425 24.6853 136.425 24.1587C136.425 22.7053 129.931 23.472 129.931 18.9053C129.931 16.0267 132.36 14.576 135.105 14.576C136.137 14.5433 137.159 14.7881 138.064 15.2848C138.969 15.7816 139.725 16.512 140.252 17.4L136.873 19.2213C136.725 18.8756 136.479 18.5811 136.164 18.3745C135.849 18.168 135.481 18.0587 135.105 18.06C134.419 18.06 133.996 18.3267 133.996 18.7987C134.001 20.304 140.495 19.3 140.495 24.184Z" fill="#394149"/>
<path d="M154.96 14.9453V28.1453H151V26.904C150.543 27.4517 149.963 27.8833 149.307 28.1633C148.651 28.4433 147.939 28.5637 147.227 28.5146C144.56 28.5146 142.293 26.6146 142.293 23.048V14.9453H146.253V22.468C146.22 22.7824 146.256 23.1002 146.359 23.3993C146.46 23.6985 146.627 23.9718 146.845 24.2002C147.064 24.4286 147.329 24.6066 147.624 24.722C147.917 24.8373 148.233 24.8872 148.549 24.868C150.001 24.868 151.004 24.024 151.004 22.1493V14.9493L154.96 14.9453Z" fill="#394149"/>
<path d="M177.667 20.04V28.144H173.707V20.3827C173.707 19.0627 173.073 18.2187 171.807 18.2187C170.487 18.2187 169.747 19.1427 169.747 20.7V28.144H165.788V20.3827C165.788 19.0627 165.155 18.2187 163.887 18.2187C162.567 18.2187 161.828 19.1427 161.828 20.7V28.144H157.868V14.944H161.828V16.1573C162.239 15.6191 162.777 15.1921 163.395 14.9157C164.013 14.6392 164.691 14.522 165.365 14.5747C166.043 14.5415 166.717 14.6845 167.324 14.9897C167.929 15.2948 168.445 15.7519 168.823 16.316C169.261 15.7257 169.843 15.2564 170.512 14.9519C171.181 14.6473 171.917 14.5176 172.651 14.5747C175.681 14.576 177.667 16.74 177.667 20.04Z" fill="#394149"/>
<path d="M181.016 14.864C182.639 14.864 183.955 13.5483 183.955 11.9253C183.955 10.3023 182.639 8.98666 181.016 8.98666C179.393 8.98666 178.077 10.3023 178.077 11.9253C178.077 13.5483 179.393 14.864 181.016 14.864Z" fill="#394149"/>
</svg>
